<svg width="164" height="39" viewBox="0 0 164 39" fill="none" xmlns="http://www.w3.org/2000/svg">
<g clip-path="url(#clip0_23_336)">
<path d="M54.6094 13.0913C54.6094 14.9314 54.6094 15.9229 54.9112 16.1744C55.1563 16.3903 55.5295 16.499 56.6508 16.499C57.4119 16.499 57.9717 16.4844 58.332 16.0966C58.53 15.8472 58.6588 15.5499 58.7052 15.2349C58.7198 15.1051 58.749 15.0191 58.8675 15.0191C58.9859 15.0191 58.9827 15.0905 58.9827 15.2625C58.9515 15.8182 58.8794 16.3709 58.7668 16.916C58.6808 17.2325 58.6046 17.3039 57.8614 17.3039C56.8277 17.3039 56.0764 17.2747 55.4273 17.2601C54.7782 17.2455 54.2621 17.2179 53.6731 17.2179C53.5108 17.2179 53.1992 17.2179 52.8617 17.2325C52.5242 17.2471 52.1575 17.2601 51.8686 17.2601C51.682 17.2601 51.5814 17.2179 51.5814 17.1173C51.5814 17.0442 51.6398 17.002 51.8118 17.002C51.9859 17.0017 52.1594 16.9826 52.3295 16.9452C52.6167 16.8868 52.6881 16.5704 52.7465 16.1534C52.8179 15.5497 52.8179 14.4154 52.8179 13.0929V10.5614C52.8179 8.37721 52.8179 7.97477 52.7887 7.51554C52.7611 7.02872 52.6459 6.79667 52.1704 6.70417C52.0147 6.67156 51.8557 6.65686 51.6966 6.66036C51.5343 6.66036 51.4532 6.63277 51.4532 6.53216C51.4532 6.43155 51.5538 6.40234 51.768 6.40234C52.4447 6.40234 53.3502 6.44616 53.738 6.44616C54.082 6.44616 55.1319 6.40234 55.6853 6.40234C55.8865 6.40234 55.9871 6.43155 55.9871 6.53216C55.9871 6.63277 55.9011 6.66036 55.7291 6.66036C55.5411 6.66098 55.3534 6.67563 55.1676 6.70417C54.7798 6.77557 54.6646 7.0206 54.637 7.51554C54.6078 7.97477 54.6078 8.37721 54.6078 10.5614L54.6094 13.0913Z" fill="#142F4E"/>
<path d="M61.2286 11.5529C61.2286 9.69973 61.2286 9.35409 61.214 8.96625C61.1848 8.54921 61.0696 8.42101 60.6671 8.3058C60.5016 8.27275 60.3329 8.25805 60.1641 8.26199C60.0359 8.26199 59.9482 8.2198 59.9482 8.13379C59.9482 8.04779 60.0489 8.01858 60.2371 8.01858C60.8975 8.01858 61.6976 8.04779 62.061 8.04779C62.4635 8.04779 65.2659 8.06077 65.511 8.04779C65.689 8.03252 65.8661 8.00815 66.0416 7.97476C66.1073 7.95118 66.1745 7.93221 66.2428 7.91797C66.3159 7.91797 66.3305 7.97476 66.3305 8.03318C66.2767 8.29364 66.2431 8.55784 66.2298 8.82345C66.2152 8.95165 66.186 9.4839 66.1568 9.63482C66.1422 9.69161 66.1146 9.83604 66.014 9.83604C65.9134 9.83604 65.9134 9.77762 65.9134 9.67376C65.9145 9.52132 65.8853 9.37017 65.8274 9.22914C65.7268 9.01331 65.6262 8.8413 64.9933 8.78288C64.7775 8.75367 63.2684 8.72609 63.0103 8.72609C62.9519 8.72609 62.9243 8.76828 62.9243 8.8413V11.858C62.9243 11.931 62.9389 11.9878 63.0103 11.9878C63.2976 11.9878 64.9349 11.9878 65.2238 11.9586C65.5126 11.9294 65.7106 11.9018 65.8274 11.772C65.928 11.686 65.9702 11.6097 66.0286 11.6097C66.0871 11.6097 66.1292 11.6665 66.1292 11.7395C66.1292 11.8125 66.1 12.0121 66.0286 12.6304C65.9994 12.8738 65.9702 13.3622 65.9702 13.4418C65.9702 13.5213 65.9556 13.716 65.842 13.716C65.7544 13.716 65.7268 13.6722 65.7268 13.6154C65.7122 13.4856 65.7122 13.3282 65.683 13.1691C65.6116 12.9257 65.4526 12.7375 64.9787 12.6953C64.7483 12.6661 63.3122 12.6385 62.9957 12.6385C62.9389 12.6385 62.9243 12.6953 62.9243 12.7667V13.7403C62.9243 14.1574 62.9097 15.1927 62.9243 15.5513C62.9519 16.3854 63.3398 16.572 64.6347 16.572C64.9592 16.572 65.4964 16.5574 65.8274 16.4097C66.1585 16.2621 66.2866 16.0073 66.3727 15.5043C66.4019 15.3744 66.4311 15.3176 66.5171 15.3176C66.6031 15.3176 66.6323 15.4799 66.6323 15.6049C66.6123 16.059 66.5542 16.5106 66.4587 16.955C66.3726 17.2795 66.2574 17.2795 65.7836 17.2795C64.8359 17.2795 64.0732 17.2649 63.455 17.2357C62.8367 17.2065 62.3629 17.2081 61.9945 17.2081C61.8501 17.2081 61.5775 17.2227 61.2756 17.2227C60.9738 17.2227 60.6574 17.2503 60.3994 17.2503C60.2371 17.2503 60.1543 17.2081 60.1543 17.1221C60.1543 17.0637 60.1981 16.9923 60.3556 16.9923C60.5055 16.996 60.6554 16.9813 60.8018 16.9485C61.0598 16.8917 61.1263 16.6613 61.175 16.2994C61.2334 15.7817 61.2335 14.8195 61.2335 13.703L61.2286 11.5529Z" fill="#142F4E"/>
<path d="M77.2143 16.4404C77.2143 16.7649 77.2143 16.7844 77.052 16.8704C76.2033 17.2874 74.9538 17.4172 73.9688 17.4172C70.8645 17.4172 68.127 16.0087 68.127 12.6318C68.127 10.6764 69.1769 9.31168 70.3404 8.63662C71.5477 7.93235 72.6836 7.84473 73.7481 7.84473C74.4998 7.8532 75.2497 7.92103 75.9907 8.04757C76.2487 8.08976 76.695 8.16116 76.9968 8.17577C77.1396 8.19037 77.1688 8.23418 77.1688 8.32019C77.0994 8.98856 77.0707 9.66053 77.0828 10.3324C77.0828 10.519 77.0114 10.605 76.9108 10.605C76.8102 10.605 76.7956 10.5466 76.781 10.4427C76.7576 10.0681 76.6051 9.71307 76.3493 9.43825C75.9761 9.0488 75.0268 8.50356 73.6053 8.50356C72.9156 8.50356 72.0377 8.51816 71.1615 9.22243C70.4572 9.79687 69.998 10.7024 69.998 12.1969C69.998 14.8274 71.6937 16.7406 74.3956 16.7406C74.6985 16.7634 75.0027 16.719 75.2865 16.6107C75.3692 16.576 75.438 16.5148 75.4821 16.4366C75.5262 16.3585 75.543 16.2678 75.5299 16.1791V15.0578C75.5299 14.4541 75.5299 13.9949 75.5153 13.6217C75.5023 13.2046 75.3725 13.0748 74.97 12.9596C74.8096 12.9287 74.6465 12.9146 74.4832 12.9174C74.368 12.9174 74.282 12.859 74.282 12.7876C74.282 12.687 74.3826 12.6724 74.5546 12.6724C75.2167 12.6724 76.1205 12.7016 76.5019 12.7016C76.9043 12.7016 77.5648 12.6724 77.9818 12.6724C78.1538 12.6724 78.2398 12.687 78.2398 12.7876C78.2378 12.8068 78.232 12.8254 78.2227 12.8424C78.2135 12.8594 78.2009 12.8743 78.1858 12.8864C78.1707 12.8985 78.1534 12.9074 78.1348 12.9127C78.1162 12.9181 78.0968 12.9196 78.0776 12.9174C77.9613 12.9204 77.8455 12.9345 77.7319 12.9596C77.3879 13.018 77.2581 13.19 77.2451 13.6217C77.2305 13.9949 77.2305 14.4833 77.2305 15.0821L77.2143 16.4404Z" fill="#142F4E"/>
<path d="M81.2957 14.1833C81.2243 14.1833 81.2097 14.1979 81.1822 14.2693L80.5055 15.9082C80.4007 16.1445 80.3376 16.397 80.3189 16.6547C80.3189 16.8705 80.4341 17.0003 80.8219 17.0003H81.0085C81.1708 17.0003 81.1951 17.0571 81.1951 17.1302C81.1951 17.2308 81.1237 17.2584 80.9939 17.2584C80.5785 17.2584 79.9878 17.2162 79.5854 17.2162C79.4572 17.2162 78.774 17.2584 78.1249 17.2584C77.9627 17.2584 77.8945 17.2308 77.8945 17.1302C77.8945 17.0571 77.9383 17.0003 78.0389 17.0003C78.1395 17.0003 78.2969 16.9857 78.4122 16.9857C78.9866 16.8997 79.2024 16.5265 79.4621 15.9082L82.7676 8.21973C82.9104 7.87409 83.011 7.73291 83.1408 7.73291C83.3274 7.73291 83.3842 7.8465 83.514 8.12075C83.8159 8.7958 85.9287 13.8003 86.7335 15.6502C87.2204 16.7569 87.5822 16.916 87.811 16.9581C87.9676 16.9853 88.126 16.9999 88.2849 17.002C88.4001 17.002 88.4585 17.0442 88.4585 17.1318C88.4585 17.2194 88.3855 17.26 87.9116 17.26C87.467 17.26 86.5469 17.26 85.4775 17.2324C85.2487 17.2178 85.1043 17.2178 85.1043 17.1318C85.1043 17.0458 85.1335 17.0166 85.2666 17.002C85.2936 16.9938 85.3184 16.9797 85.3393 16.9607C85.3603 16.9418 85.3767 16.9185 85.3876 16.8924C85.3985 16.8664 85.4034 16.8382 85.4021 16.81C85.4008 16.7819 85.3934 16.7543 85.3802 16.7293L84.4065 14.2709C84.399 14.2436 84.3819 14.2199 84.3584 14.2042C84.3349 14.1884 84.3065 14.1815 84.2783 14.1849L81.2957 14.1833ZM83.9976 13.5082C84.056 13.5082 84.0706 13.479 84.056 13.4368L82.8633 10.3325C82.8487 10.2887 82.8341 10.2173 82.8049 10.2173C82.7757 10.2173 82.7481 10.2887 82.7335 10.3325L81.5116 13.4157C81.4824 13.4725 81.5116 13.5017 81.5554 13.5017L83.9976 13.5082Z" fill="#142F4E"/>
<path d="M91.5304 13.7176C91.5304 15.2835 91.5304 16.0592 91.803 16.2896C92.0188 16.4762 92.5073 16.5493 93.4841 16.5493C94.1592 16.5493 94.6476 16.5347 94.9641 16.2036C95.1357 15.9933 95.2452 15.7393 95.2805 15.4701C95.2951 15.3549 95.3243 15.2835 95.4249 15.2835C95.5255 15.2835 95.5402 15.4134 95.5402 15.5562C95.5134 16.0298 95.4504 16.5007 95.3519 16.9647C95.2659 17.2389 95.2091 17.2892 94.5405 17.2892C93.6351 17.2892 92.9016 17.2746 92.2687 17.2454C91.6359 17.2162 91.1052 17.2178 90.5876 17.2178C90.4448 17.2178 90.1705 17.2324 89.8687 17.2324C89.5669 17.2324 89.2504 17.26 88.9924 17.26C88.8301 17.26 88.7474 17.2178 88.7474 17.1318C88.7474 17.0734 88.7912 17.002 88.9486 17.002C89.0986 17.0057 89.2485 16.991 89.3949 16.9582C89.6529 16.9014 89.7194 16.671 89.7681 16.3091C89.8265 15.7914 89.8265 14.8292 89.8265 13.7127V11.5529C89.8265 9.69971 89.8265 9.35406 89.8119 8.96623C89.7827 8.54919 89.6675 8.42099 89.265 8.30578C89.1284 8.27359 88.9883 8.25886 88.848 8.26196C88.7052 8.26196 88.6338 8.21977 88.6338 8.13377C88.6338 8.04776 88.7198 8.01855 88.9064 8.01855C89.4955 8.01855 90.3003 8.04776 90.6444 8.04776C90.9462 8.04776 91.9815 8.01855 92.4699 8.01855C92.6565 8.01855 92.7442 8.04776 92.7442 8.13377C92.7442 8.21977 92.6712 8.26196 92.5138 8.26196C92.3505 8.26208 92.1876 8.27674 92.0269 8.30578C91.6813 8.36257 91.5807 8.53621 91.5515 8.96623C91.5239 9.35406 91.5239 9.69971 91.5239 11.5529L91.5304 13.7176Z" fill="#142F4E"/>
<path d="M97.7641 11.5529C97.7641 9.69971 97.7641 9.35406 97.7495 8.96623C97.7203 8.54919 97.6066 8.42099 97.2042 8.30578C97.0386 8.27272 96.87 8.25803 96.7012 8.26196C96.5713 8.26196 96.4854 8.21977 96.4854 8.13377C96.4854 8.04776 96.586 8.01855 96.7726 8.01855C97.433 8.01855 98.233 8.04776 98.5982 8.04776C99.1158 8.04776 100.12 8.01855 100.696 8.01855C102.277 8.01855 102.851 8.53621 103.053 8.70822C103.445 9.09432 103.672 9.61812 103.685 10.1687C103.685 11.8936 102.306 13.1302 100.51 13.1302C100.385 13.1326 100.259 13.1277 100.135 13.1156C100.116 13.118 100.096 13.1166 100.077 13.1114C100.059 13.1062 100.041 13.0972 100.026 13.0851C100.011 13.073 99.9985 13.0579 99.9893 13.0409C99.9801 13.0238 99.9744 13.0051 99.9726 12.9857C99.9726 12.8851 100.115 12.8235 100.39 12.8235C101.094 12.8235 102.085 12.09 102.085 10.8389C102.085 10.4364 102.042 9.63317 101.337 9.02951C100.986 8.727 100.537 8.56311 100.073 8.56866C99.8891 8.5624 99.705 8.58207 99.5264 8.62708C99.455 8.65467 99.4257 8.72769 99.4257 8.85589V13.7176C99.4257 14.8389 99.4257 15.8012 99.4842 16.3334C99.5264 16.6775 99.5994 16.9079 99.971 16.9647C100.186 16.994 100.403 17.0086 100.62 17.0085C100.764 17.0085 100.821 17.0799 100.821 17.1383C100.821 17.2243 100.721 17.2665 100.592 17.2665C99.7438 17.2665 98.8529 17.2243 98.5219 17.2243C98.2346 17.2243 97.4298 17.2665 96.9267 17.2665C96.7645 17.2665 96.6833 17.2243 96.6833 17.1383C96.6833 17.0799 96.7255 17.0085 96.8845 17.0085C97.034 17.0122 97.1833 16.9975 97.3292 16.9647C97.5888 16.9079 97.6537 16.6775 97.704 16.3156C97.7608 15.7979 97.7608 14.8357 97.7608 13.7192L97.7641 11.5529Z" fill="#142F4E"/>
<path d="M106.33 11.5529C106.33 9.69971 106.33 9.35406 106.316 8.96623C106.288 8.54919 106.173 8.42099 105.771 8.30578C105.605 8.27272 105.436 8.25803 105.268 8.26196C105.138 8.26196 105.052 8.21977 105.052 8.13377C105.052 8.04776 105.152 8.01855 105.339 8.01855C105.999 8.01855 106.799 8.04776 107.064 8.04776C107.496 8.04776 108.644 8.01855 109.032 8.01855C109.844 8.01855 110.757 8.08996 111.432 8.53621C111.701 8.72841 111.921 8.98028 112.075 9.272C112.23 9.56371 112.315 9.88732 112.323 10.2174C112.323 11.1228 111.806 11.9277 110.571 12.9192C111.69 14.2985 112.583 15.4052 113.344 16.1647C114.048 16.8689 114.494 16.9274 114.694 16.976C114.793 16.9989 114.894 17.0087 114.996 17.0053C115.035 17.0011 115.073 17.0125 115.104 17.0368C115.134 17.0611 115.154 17.0964 115.158 17.1351C115.158 17.2357 115.072 17.2633 114.913 17.2633H113.706C113.002 17.2633 112.657 17.1919 112.326 17.0199C111.781 16.7472 111.306 16.1712 110.601 15.2235C110.098 14.5614 109.568 13.7436 109.409 13.5553C109.379 13.5252 109.343 13.5019 109.304 13.4871C109.264 13.4722 109.222 13.4662 109.18 13.4693L108.044 13.4417C108.03 13.4402 108.017 13.4417 108.004 13.4462C107.991 13.4507 107.979 13.4581 107.969 13.4678C107.96 13.4774 107.952 13.4892 107.948 13.5021C107.943 13.515 107.942 13.5288 107.943 13.5423V13.7176C107.943 14.8535 107.958 15.8012 108.015 16.314C108.059 16.6726 108.115 16.903 108.502 16.9631C108.707 16.9911 108.913 17.0058 109.12 17.0069C109.159 17.0028 109.197 17.0141 109.228 17.0384C109.258 17.0627 109.278 17.098 109.282 17.1367C109.282 17.2227 109.182 17.2649 109.023 17.2649C108.291 17.2649 107.238 17.2227 107.054 17.2227C106.809 17.2227 106.004 17.2649 105.501 17.2649C105.339 17.2649 105.258 17.2227 105.258 17.1367C105.258 17.0783 105.302 17.0069 105.459 17.0069C105.608 17.0106 105.758 16.9959 105.904 16.9631C106.163 16.9063 106.228 16.6758 106.279 16.314C106.335 15.7963 106.335 14.834 106.335 13.7176L106.33 11.5529ZM107.94 12.5022C107.94 12.632 107.969 12.6742 108.055 12.718C108.369 12.8012 108.693 12.84 109.018 12.8332C109.521 12.8332 109.694 12.7894 109.909 12.632C110.298 12.3577 110.72 11.8206 110.72 10.821C110.72 9.09605 109.542 8.6498 108.794 8.6498C108.544 8.64372 108.294 8.65838 108.047 8.69361C108.01 8.70183 107.977 8.72433 107.955 8.7564C107.934 8.78847 107.925 8.82762 107.932 8.86562L107.94 12.5022Z" fill="#142F4E"/>
<path d="M116.189 11.5529C116.189 9.69973 116.189 9.35409 116.174 8.96625C116.147 8.54921 116.031 8.42101 115.629 8.3058C115.463 8.27275 115.295 8.25805 115.126 8.26199C114.996 8.26199 114.91 8.2198 114.91 8.13379C114.91 8.04779 115.011 8.01858 115.197 8.01858C115.859 8.01858 116.658 8.04779 117.023 8.04779C117.425 8.04779 120.228 8.06077 120.471 8.04779C120.65 8.03249 120.827 8.00812 121.004 7.97476C121.069 7.95098 121.136 7.932 121.205 7.91797C121.276 7.91797 121.291 7.97476 121.291 8.03318C121.238 8.2938 121.204 8.55793 121.19 8.82345C121.176 8.95165 121.148 9.4839 121.119 9.63482C121.104 9.69161 121.075 9.83604 120.974 9.83604C120.874 9.83604 120.874 9.77762 120.874 9.67376C120.875 9.52132 120.846 9.37017 120.788 9.22914C120.687 9.01331 120.586 8.8413 119.955 8.78288C119.739 8.75367 118.23 8.72609 117.971 8.72609C117.914 8.72609 117.885 8.76828 117.885 8.8413V11.858C117.885 11.931 117.899 11.9878 117.971 11.9878C118.259 11.9878 119.897 11.9878 120.184 11.9586C120.471 11.9294 120.671 11.9018 120.788 11.772C120.888 11.686 120.932 11.6097 120.989 11.6097C121.046 11.6097 121.09 11.6665 121.09 11.7395C121.09 11.8125 121.062 12.0121 120.989 12.6304C120.96 12.8738 120.932 13.3622 120.932 13.4418C120.932 13.5213 120.918 13.716 120.802 13.716C120.716 13.716 120.687 13.6722 120.687 13.6154C120.672 13.4856 120.672 13.3282 120.645 13.1691C120.572 12.9257 120.414 12.7375 119.941 12.6953C119.71 12.6661 118.272 12.6385 117.958 12.6385C117.899 12.6385 117.885 12.6953 117.885 12.7667V13.7403C117.885 14.1574 117.87 15.1927 117.885 15.5513C117.914 16.3854 118.302 16.572 119.595 16.572C119.92 16.572 120.458 16.5574 120.788 16.4097C121.117 16.2621 121.249 16.0073 121.335 15.5043C121.364 15.3744 121.391 15.3176 121.477 15.3176C121.563 15.3176 121.593 15.4799 121.593 15.6049C121.572 16.0588 121.515 16.5104 121.421 16.955C121.335 17.2795 121.219 17.2795 120.746 17.2795C119.796 17.2795 119.035 17.2649 118.417 17.2357C117.799 17.2065 117.325 17.2081 116.956 17.2081C116.812 17.2081 116.539 17.2227 116.238 17.2227C115.936 17.2227 115.619 17.2503 115.361 17.2503C115.199 17.2503 115.116 17.2081 115.116 17.1221C115.116 17.0637 115.16 16.9923 115.317 16.9923C115.464 16.9999 115.61 16.9901 115.754 16.9631C116.012 16.9063 116.079 16.6759 116.127 16.314C116.184 15.7963 116.184 14.8341 116.184 13.7176L116.189 11.5529Z" fill="#142F4E"/>
<path d="M124.969 15.5919C124.999 16.5412 125.156 16.8284 125.401 16.9144C125.615 16.9771 125.838 17.0061 126.062 17.0004C126.206 17.0004 126.277 17.0572 126.277 17.1302C126.277 17.2308 126.162 17.2584 125.99 17.2584C125.179 17.2584 124.582 17.2162 124.351 17.2162C124.238 17.2162 123.634 17.2584 122.986 17.2584C122.814 17.2584 122.699 17.2438 122.699 17.1302C122.699 17.0572 122.785 17.0004 122.9 17.0004C123.093 17.0024 123.286 16.9834 123.475 16.9436C123.799 16.856 123.848 16.5266 123.863 15.462L123.978 8.21978C123.978 7.97475 124.064 7.80273 124.194 7.80273C124.356 7.80273 124.518 7.98935 124.741 8.20517C124.903 8.36745 126.795 10.3034 128.635 12.0997C129.497 12.9468 131.178 14.6718 131.365 14.8438H131.423L131.293 9.41249C131.279 8.66441 131.163 8.44858 130.862 8.33499C130.647 8.2755 130.424 8.25085 130.201 8.26197C130.039 8.26197 130 8.20517 130 8.13377C130 8.03316 130.13 8.01856 130.324 8.01856C130.985 8.01856 131.66 8.04777 131.934 8.04777C132.077 8.04777 132.551 8.01856 133.169 8.01856C133.343 8.01856 133.456 8.03316 133.456 8.13377C133.456 8.20517 133.385 8.26197 133.242 8.26197C133.111 8.25633 132.98 8.27111 132.854 8.30578C132.509 8.40639 132.408 8.63033 132.393 9.31188L132.251 17.015C132.251 17.2876 132.15 17.4028 132.049 17.4028C131.95 17.3961 131.853 17.3697 131.764 17.3251C131.676 17.2806 131.596 17.2187 131.532 17.1432C130.741 16.4113 129.159 14.9022 127.838 13.6235C126.459 12.301 125.122 10.821 124.877 10.6052H124.835L124.969 15.5919Z" fill="#142F4E"/>
<path d="M136.264 11.5529C136.264 9.69973 136.264 9.35409 136.25 8.96625C136.22 8.54921 136.105 8.42101 135.704 8.3058C135.539 8.27275 135.37 8.25805 135.201 8.26199C135.071 8.26199 134.985 8.2198 134.985 8.13379C134.985 8.04779 135.086 8.01858 135.273 8.01858C135.933 8.01858 136.733 8.04779 137.098 8.04779C137.501 8.04779 140.303 8.06077 140.547 8.04779C140.725 8.03249 140.903 8.00812 141.079 7.97476C141.144 7.95077 141.212 7.93179 141.28 7.91797C141.351 7.91797 141.366 7.97476 141.366 8.03318C141.313 8.2938 141.28 8.55793 141.265 8.82345C141.251 8.95165 141.222 9.4839 141.194 9.63482C141.179 9.69161 141.15 9.83604 141.05 9.83604C140.949 9.83604 140.949 9.77762 140.949 9.67376C140.95 9.52132 140.921 9.37017 140.863 9.22914C140.762 9.01331 140.662 8.8413 140.029 8.78288C139.813 8.75367 138.306 8.72609 138.046 8.72609C137.989 8.72609 137.96 8.76828 137.96 8.8413V11.858C137.96 11.931 137.975 11.9878 138.046 11.9878C138.333 11.9878 139.972 11.9878 140.259 11.9586C140.547 11.9294 140.746 11.9018 140.863 11.772C140.964 11.686 141.006 11.6097 141.064 11.6097C141.123 11.6097 141.165 11.6665 141.165 11.7395C141.165 11.8125 141.136 12.0121 141.064 12.6304C141.035 12.8738 141.006 13.3622 141.006 13.4418C141.006 13.5213 140.993 13.716 140.878 13.716C140.792 13.716 140.762 13.6722 140.762 13.6154C140.748 13.4856 140.748 13.3282 140.719 13.1691C140.647 12.9257 140.49 12.7375 140.014 12.6953C139.785 12.6661 138.348 12.6385 138.031 12.6385C137.975 12.6385 137.96 12.6953 137.96 12.7667V13.7403C137.96 14.1574 137.945 15.1927 137.96 15.5513C137.989 16.3854 138.377 16.572 139.67 16.572C139.995 16.572 140.532 16.5574 140.863 16.4097C141.194 16.2621 141.322 16.0073 141.408 15.5043C141.437 15.3744 141.467 15.3176 141.553 15.3176C141.639 15.3176 141.668 15.4799 141.668 15.6049C141.648 16.0588 141.59 16.5104 141.496 16.955C141.408 17.2795 141.295 17.2795 140.819 17.2795C139.871 17.2795 139.109 17.2649 138.492 17.2357C137.876 17.2065 137.4 17.2081 137.032 17.2081C136.889 17.2081 136.615 17.2227 136.314 17.2227C136.014 17.2227 135.696 17.2503 135.437 17.2503C135.274 17.2503 135.193 17.2081 135.193 17.1221C135.193 17.0637 135.235 16.9923 135.394 16.9923C135.544 16.9959 135.693 16.9812 135.839 16.9485C136.099 16.8917 136.164 16.6613 136.212 16.2994C136.271 15.7817 136.271 14.8195 136.271 13.703L136.264 11.5529Z" fill="#142F4E"/>
<path d="M143.988 11.5529C143.988 9.69978 144.003 9.35414 143.975 8.96631C143.946 8.53628 143.831 8.42107 143.428 8.30585C143.268 8.27355 143.105 8.25886 142.941 8.26204C142.797 8.26204 142.726 8.21985 142.726 8.13384C142.726 8.04784 142.812 8.01863 142.998 8.01863C143.675 8.01863 144.522 8.04784 144.895 8.04784C145.22 8.04784 146.06 8.01863 146.518 8.01863C146.704 8.01863 146.79 8.04784 146.79 8.13384C146.79 8.21985 146.719 8.26204 146.589 8.26204C146.464 8.26311 146.338 8.2778 146.216 8.30585C145.891 8.36265 145.784 8.53628 145.757 8.96631C145.728 9.35414 145.728 9.69978 145.728 11.5529V13.2633C145.728 15.0483 146.073 15.7364 146.69 16.2248C147.148 16.5698 147.713 16.7422 148.285 16.7116C148.913 16.7246 149.522 16.4917 149.981 16.0625C150.685 15.4021 150.714 14.3392 150.714 13.088V11.5497C150.714 9.69654 150.7 9.3509 150.685 8.96306C150.657 8.54602 150.557 8.41782 150.154 8.30261C150.003 8.27144 149.848 8.25674 149.694 8.25879C149.551 8.25879 149.478 8.2166 149.478 8.1306C149.478 8.04459 149.565 8.01538 149.737 8.01538C150.386 8.01538 151.232 8.04459 151.246 8.04459C151.389 8.04459 152.238 8.01538 152.726 8.01538C152.898 8.01538 152.984 8.04459 152.984 8.1306C152.984 8.2166 152.913 8.25879 152.77 8.25879C152.644 8.25977 152.518 8.27447 152.395 8.30261C152.051 8.3594 151.965 8.53304 151.936 8.96306C151.922 9.3509 151.907 9.69654 151.907 11.5497V12.8576C151.907 14.224 151.764 15.6601 150.7 16.538C149.809 17.2844 148.846 17.4143 148.027 17.4143C147.367 17.4143 146.059 17.3851 145.139 16.5802C144.489 16.0203 143.988 15.1197 143.988 13.3461V11.5529Z" fill="#142F4E"/>
<path d="M155.176 11.5529C155.176 9.69971 155.176 9.35406 155.162 8.96623C155.134 8.54919 155.019 8.42099 154.616 8.30578C154.451 8.27272 154.282 8.25803 154.113 8.26196C153.983 8.26196 153.897 8.21977 153.897 8.13377C153.897 8.04776 153.998 8.01855 154.185 8.01855C154.847 8.01855 155.645 8.04776 155.91 8.04776C156.341 8.04776 157.49 8.01855 157.878 8.01855C158.689 8.01855 159.603 8.08996 160.278 8.53621C160.547 8.72815 160.767 8.97996 160.922 9.27173C161.076 9.56351 161.161 9.88724 161.169 10.2174C161.169 11.1228 160.653 11.9277 159.416 12.9192C160.538 14.2985 161.429 15.4052 162.19 16.1647C162.894 16.8689 163.34 16.9274 163.541 16.976C163.64 16.999 163.742 17.0088 163.843 17.0053C163.862 17.003 163.882 17.0046 163.9 17.0099C163.919 17.0152 163.936 17.0242 163.951 17.0363C163.967 17.0483 163.979 17.0633 163.988 17.0803C163.998 17.0972 164.003 17.1158 164.005 17.1351C164.005 17.2357 163.919 17.2633 163.76 17.2633H162.555C161.85 17.2633 161.505 17.1919 161.174 17.0199C160.629 16.7472 160.155 16.1712 159.45 15.2235C158.947 14.5614 158.415 13.7436 158.258 13.5553C158.228 13.5253 158.192 13.502 158.152 13.4872C158.112 13.4723 158.07 13.4663 158.027 13.4693L156.891 13.4417C156.878 13.4402 156.864 13.4417 156.851 13.4462C156.838 13.4507 156.826 13.4581 156.817 13.4678C156.807 13.4774 156.8 13.4892 156.795 13.5021C156.791 13.515 156.789 13.5288 156.791 13.5423V13.7176C156.791 14.8535 156.805 15.8012 156.862 16.314C156.906 16.6726 156.963 16.903 157.349 16.9631C157.553 16.9912 157.759 17.0058 157.966 17.0069C158.004 17.0028 158.043 17.0141 158.073 17.0384C158.104 17.0627 158.123 17.098 158.128 17.1367C158.128 17.2227 158.027 17.2649 157.868 17.2649C157.136 17.2649 156.083 17.2227 155.9 17.2227C155.656 17.2227 154.852 17.2649 154.349 17.2649C154.186 17.2649 154.104 17.2227 154.104 17.1367C154.104 17.0783 154.147 17.0069 154.305 17.0069C154.455 17.0105 154.605 16.9958 154.751 16.9631C155.009 16.9063 155.076 16.6758 155.124 16.314C155.181 15.7963 155.181 14.834 155.181 13.7176L155.176 11.5529ZM156.786 12.5022C156.786 12.632 156.815 12.6742 156.901 12.718C157.215 12.8011 157.539 12.8399 157.863 12.8332C158.366 12.8332 158.54 12.7894 158.756 12.632C159.144 12.3577 159.567 11.8206 159.567 10.821C159.567 9.09605 158.389 8.6498 157.643 8.6498C157.393 8.64367 157.142 8.65832 156.895 8.69361C156.857 8.70183 156.824 8.72433 156.802 8.7564C156.781 8.78847 156.773 8.82762 156.779 8.86562L156.786 12.5022Z" fill="#142F4E"/>
<path d="M53.0301 31.363C51.6216 30.1265 51.2451 28.5167 51.2451 27.1228C51.2451 26.1491 51.547 24.4501 52.9263 23.186C53.96 22.2367 55.3263 21.6623 57.4699 21.6623C58.167 21.6588 58.8634 21.7066 59.5535 21.8051C60.1004 21.8781 60.5596 22.0063 60.9913 22.0501C61.1535 22.0647 61.2071 22.1361 61.2071 22.2221C61.2071 22.3373 61.1633 22.5094 61.1357 23.0124C61.1065 23.4862 61.1211 24.2781 61.0919 24.5653C61.0773 24.7812 61.0497 24.8899 60.9199 24.8899C60.79 24.8899 60.7754 24.7763 60.7754 24.5751C60.754 24.0812 60.5552 23.6117 60.2156 23.2526C59.7418 22.7495 58.6204 22.3617 57.2947 22.3617C56.0452 22.3617 55.2257 22.6765 54.5928 23.2526C53.5445 24.2148 53.2703 25.5796 53.2703 26.9751C53.2703 30.3942 55.8667 32.09 57.7977 32.09C59.0764 32.09 59.8537 31.9472 60.4282 31.2786C60.6588 31.0028 60.8251 30.679 60.915 30.3309C60.9572 30.1005 60.9864 30.0437 61.1016 30.0437C61.2168 30.0437 61.2314 30.1443 61.2314 30.2595C61.1708 30.9028 61.0651 31.541 60.915 32.1695C60.9005 32.2679 60.8574 32.3599 60.791 32.4341C60.7246 32.5082 60.638 32.5612 60.5418 32.5865C59.9657 32.817 58.8736 32.9111 57.9535 32.9111C55.99 32.9289 54.338 32.4973 53.0301 31.363Z" fill="#142F4E"/>
<path d="M62.6426 28.0999C62.6426 26.0163 64.1031 23.3145 67.9457 23.3145C71.136 23.3145 73.119 25.0816 73.119 27.8841C73.119 30.6865 71.0792 32.8853 67.8159 32.8853C64.1371 32.8853 62.6426 30.2695 62.6426 28.0999ZM71.2431 28.3303C71.2431 25.6285 69.6204 23.9619 67.579 23.9619C66.1704 23.9619 64.5185 24.7084 64.5185 27.7267C64.5185 30.2419 65.9546 32.2249 68.34 32.2249C69.2244 32.2249 71.2366 31.8078 71.2366 28.3303H71.2431Z" fill="#142F4E"/>
<path d="M76.266 31.0613C76.2936 32.009 76.4526 32.2962 76.696 32.3822C76.9107 32.4462 77.1341 32.4758 77.3581 32.4699C77.5009 32.4699 77.5739 32.5267 77.5739 32.5981C77.5739 32.6987 77.4587 32.7279 77.2867 32.7279C76.4672 32.7279 75.8781 32.6841 75.6477 32.6841C75.5325 32.6841 74.9288 32.7279 74.283 32.7279C74.1094 32.7279 73.9941 32.7133 73.9941 32.5981C73.9941 32.5267 74.0818 32.4699 74.197 32.4699C74.3901 32.4721 74.5828 32.4525 74.7714 32.4115C75.096 32.3255 75.1447 31.9944 75.1593 30.9315L75.2745 23.6876C75.2745 23.4442 75.3605 23.2722 75.4903 23.2722C75.6526 23.2722 75.8149 23.4588 76.0355 23.6747C76.1978 23.8369 78.0915 25.7728 79.9301 27.5692C80.7918 28.4163 82.4746 30.1413 82.6612 30.3133H82.718L82.5881 24.882C82.5752 24.1339 82.4599 23.9181 82.1581 23.8029C81.9425 23.7446 81.7191 23.7205 81.496 23.7315C81.3338 23.7315 81.2948 23.6746 81.2948 23.6016C81.2948 23.501 81.4246 23.4864 81.6194 23.4864C82.2814 23.4864 82.9565 23.5156 83.2291 23.5156C83.3735 23.5156 83.8474 23.4864 84.4656 23.4864C84.6377 23.4864 84.7529 23.501 84.7529 23.6016C84.7529 23.6746 84.6815 23.7315 84.537 23.7315C84.4063 23.7258 84.2754 23.7406 84.1492 23.7753C83.8036 23.8759 83.703 24.0901 83.69 24.7814L83.5456 32.4829C83.5456 32.7571 83.4449 32.8723 83.3443 32.8723C83.2452 32.8654 83.1484 32.8389 83.0595 32.7944C82.9706 32.7498 82.8915 32.688 82.8267 32.6127C82.0364 31.8792 80.4559 30.3717 79.1333 29.0913C77.754 27.7704 76.4169 26.2889 76.1735 26.0747H76.1297L76.266 31.0613Z" fill="#142F4E"/>
<path d="M86.8674 32.5705C86.6662 32.4829 86.624 32.4261 86.624 32.1535C86.624 31.4914 86.6808 30.7303 86.6954 30.5307C86.71 30.3311 86.7538 30.2062 86.8577 30.2062C86.9615 30.2062 86.9875 30.3214 86.9875 30.4074C86.996 30.6227 87.0348 30.8358 87.1027 31.0403C87.3753 31.9457 88.3246 32.2476 89.1149 32.2476C90.207 32.2476 90.8675 31.5579 90.8675 30.6946C90.8675 30.164 90.7393 29.6317 89.618 28.9713L88.8845 28.5396C87.39 27.6634 86.9015 26.8439 86.9015 25.7664C86.9015 24.2718 88.3393 23.3079 90.0918 23.3079C90.6965 23.3025 91.2997 23.37 91.8882 23.5092C92.0034 23.5384 92.0602 23.5806 92.0602 23.6714C92.0602 23.8337 92.018 24.1745 92.018 25.1319C92.018 25.3899 91.9596 25.5197 91.8557 25.5197C91.7519 25.5197 91.7275 25.4483 91.7275 25.3039C91.7097 25.0055 91.5958 24.7209 91.403 24.4925C91.2164 24.2637 90.8139 23.9181 89.9944 23.9181C89.089 23.9181 88.2695 24.3919 88.2695 25.226C88.2695 25.7712 88.4707 26.1996 89.6066 26.8358L90.1243 27.123C91.7908 28.0431 92.3085 28.9761 92.3085 30.0828C92.3085 30.9883 91.9628 31.7218 91.0443 32.3677C90.4407 32.7993 89.6066 32.8707 88.9348 32.8707C88.1932 32.8853 87.4175 32.8139 86.8674 32.5705Z" fill="#142F4E"/>
<path d="M94.7742 27.024C94.7742 25.1708 94.7888 24.8252 94.7596 24.4373C94.732 24.0057 94.6168 23.8905 94.2144 23.7769C94.0542 23.7446 93.8909 23.7299 93.7276 23.7331C93.5831 23.7331 93.5117 23.6892 93.5117 23.6032C93.5117 23.5172 93.5977 23.488 93.7843 23.488C94.4594 23.488 95.3081 23.5172 95.6813 23.5172C96.0059 23.5172 96.8448 23.488 97.304 23.488C97.4907 23.488 97.5767 23.5172 97.5767 23.6032C97.5767 23.6892 97.5053 23.7331 97.3755 23.7331C97.2498 23.734 97.1247 23.7487 97.0022 23.7769C96.6777 23.8337 96.5706 24.0057 96.5414 24.4373C96.5138 24.8252 96.5138 25.1708 96.5138 27.024V28.7343C96.5138 30.5193 96.8578 31.2058 97.4761 31.6942C97.9646 32.0368 98.5534 32.2069 99.1494 32.1775C99.7453 32.1481 100.315 31.9209 100.767 31.5319C101.471 30.8715 101.5 29.807 101.5 28.5575V27.024C101.5 25.1708 101.486 24.8252 101.471 24.4373C101.442 24.0203 101.341 23.8905 100.939 23.7769C100.788 23.7457 100.634 23.731 100.48 23.7331C100.335 23.7331 100.264 23.6892 100.264 23.6032C100.264 23.5172 100.35 23.488 100.524 23.488C101.173 23.488 102.018 23.5172 102.033 23.5172C102.175 23.5172 103.024 23.488 103.513 23.488C103.685 23.488 103.771 23.5172 103.771 23.6032C103.771 23.6892 103.699 23.7331 103.555 23.7331C103.429 23.734 103.304 23.7487 103.182 23.7769C102.838 23.8337 102.75 24.0057 102.722 24.4373C102.708 24.8252 102.693 25.1708 102.693 27.024V28.3319C102.693 29.6966 102.549 31.1344 101.486 32.0106C100.595 32.7587 99.6327 32.8869 98.8132 32.8869C98.1511 32.8869 96.8432 32.8593 95.9247 32.0544C95.2756 31.493 94.7742 30.594 94.7742 28.8203V27.024Z" fill="#142F4E"/>
<path d="M107.652 29.1773C107.652 30.7449 107.652 31.5206 107.925 31.751C108.141 31.9376 108.629 32.009 109.608 32.009C110.283 32.009 110.771 31.9944 111.087 31.665C111.261 31.4549 111.373 31.2012 111.412 30.9315C111.425 30.8163 111.454 30.7449 111.555 30.7449C111.655 30.7449 111.67 30.8747 111.67 31.0175C111.644 31.4911 111.582 31.962 111.483 32.426C111.397 32.6987 111.339 32.7506 110.672 32.7506C109.767 32.7506 109.033 32.736 108.4 32.7068C107.767 32.6776 107.235 32.6776 106.717 32.6776C106.575 32.6776 106.302 32.6922 106 32.6922C105.698 32.6922 105.382 32.7214 105.122 32.7214C104.96 32.7214 104.879 32.6776 104.879 32.5916C104.879 32.5348 104.921 32.4634 105.08 32.4634C105.23 32.4671 105.379 32.4524 105.525 32.4196C105.784 32.3628 105.849 32.1323 105.9 31.7705C105.956 31.2528 105.956 30.2889 105.956 29.1741V27.024C105.956 25.1708 105.956 24.8252 105.942 24.4373C105.914 24.0203 105.799 23.8905 105.397 23.7769C105.26 23.7448 105.12 23.73 104.98 23.7331C104.835 23.7331 104.764 23.6892 104.764 23.6032C104.764 23.5172 104.85 23.488 105.036 23.488C105.625 23.488 106.43 23.5172 106.776 23.5172C107.078 23.5172 108.113 23.488 108.601 23.488C108.788 23.488 108.874 23.5172 108.874 23.6032C108.874 23.6892 108.803 23.7331 108.644 23.7331C108.48 23.7333 108.317 23.748 108.157 23.7769C107.813 23.8337 107.712 24.0057 107.683 24.4373C107.654 24.8252 107.654 25.1708 107.654 27.024L107.652 29.1773Z" fill="#142F4E"/>
<path d="M114.882 24.2346L113 24.2784C112.266 24.2914 111.964 24.379 111.778 24.6516C111.683 24.7776 111.61 24.9185 111.562 25.0686C111.533 25.1693 111.505 25.2309 111.417 25.2309C111.33 25.2309 111.304 25.1595 111.304 25.0297C111.304 24.8285 111.547 23.6504 111.576 23.5498C111.606 23.3875 111.648 23.3193 111.719 23.3193C111.82 23.3193 111.95 23.4199 112.266 23.4638C112.686 23.5047 113.108 23.5237 113.53 23.5206H118.661C118.95 23.5232 119.238 23.5042 119.523 23.4638C119.724 23.4346 119.825 23.4053 119.869 23.4053C119.955 23.4053 119.969 23.4784 119.969 23.665C119.969 23.923 119.94 24.8285 119.94 25.1449C119.925 25.2747 119.898 25.3461 119.825 25.3461C119.724 25.3461 119.697 25.2877 119.682 25.1011L119.667 24.9729C119.638 24.6484 119.307 24.2832 118.173 24.2686L116.578 24.2394V29.1823C116.578 30.3036 116.592 31.2675 116.649 31.7981C116.693 32.1438 116.764 32.3742 117.136 32.431C117.351 32.4607 117.568 32.4753 117.785 32.4748C117.928 32.4748 117.986 32.5462 117.986 32.603C117.986 32.689 117.886 32.7328 117.741 32.7328C116.907 32.7328 116.06 32.689 115.701 32.689C115.413 32.689 114.551 32.7328 114.048 32.7328C113.886 32.7328 113.804 32.689 113.804 32.603C113.804 32.5462 113.847 32.4748 114.006 32.4748C114.155 32.4793 114.305 32.4646 114.45 32.431C114.708 32.3742 114.775 32.1438 114.824 31.7819C114.882 31.2642 114.882 30.3003 114.882 29.1855V24.2346Z" fill="#142F4E"/>
<path d="M122.296 27.0239C122.296 25.1707 122.296 24.8251 122.282 24.4372C122.254 24.0202 122.119 23.8774 121.852 23.7882C121.701 23.7476 121.546 23.7285 121.391 23.7314C121.262 23.7314 121.189 23.7022 121.189 23.5869C121.189 23.5155 121.29 23.4863 121.491 23.4863C121.967 23.4863 122.828 23.5155 123.187 23.5155C123.512 23.5155 124.323 23.4863 124.81 23.4863C124.972 23.4863 125.069 23.5155 125.069 23.5869C125.069 23.7022 124.996 23.7314 124.868 23.7314C124.742 23.7323 124.616 23.747 124.493 23.7752C124.149 23.832 124.049 24.004 124.019 24.4356C123.99 24.8235 123.99 25.1691 123.99 27.0223V29.1773C123.99 30.357 123.99 31.3339 124.049 31.8515C124.091 32.1761 124.177 32.3692 124.552 32.426C124.767 32.4557 124.984 32.4704 125.201 32.4698C125.345 32.4698 125.402 32.5412 125.402 32.598C125.402 32.684 125.301 32.7278 125.159 32.7278C124.325 32.7278 123.463 32.684 123.117 32.684C122.83 32.684 121.968 32.7278 121.465 32.7278C121.303 32.7278 121.22 32.684 121.22 32.598C121.22 32.5412 121.264 32.4698 121.422 32.4698C121.571 32.4734 121.721 32.4587 121.868 32.426C122.126 32.3692 122.192 32.1955 122.241 31.8369C122.298 31.3339 122.298 30.357 122.298 29.1773L122.296 27.0239Z" fill="#142F4E"/>
<path d="M128.934 31.0613C128.963 32.009 129.121 32.2962 129.364 32.3822C129.579 32.4462 129.802 32.4758 130.026 32.4699C130.169 32.4699 130.242 32.5267 130.242 32.5981C130.242 32.6987 130.127 32.7279 129.955 32.7279C129.144 32.7279 128.546 32.6841 128.316 32.6841C128.201 32.6841 127.597 32.7279 126.951 32.7279C126.778 32.7279 126.664 32.7133 126.664 32.5981C126.664 32.5267 126.75 32.4699 126.865 32.4699C127.058 32.4721 127.251 32.4525 127.44 32.4115C127.764 32.3255 127.813 31.9944 127.828 30.9315L127.943 23.6876C127.943 23.4442 128.029 23.2722 128.159 23.2722C128.321 23.2722 128.483 23.4588 128.704 23.6747C128.866 23.8369 130.76 25.7728 132.598 27.5692C133.46 28.4163 135.143 30.1413 135.329 30.3133H135.386L135.258 24.882C135.243 24.1339 135.128 23.9181 134.826 23.8029C134.611 23.7446 134.387 23.7205 134.164 23.7315C134.002 23.7315 133.963 23.6746 133.963 23.6016C133.963 23.501 134.093 23.4864 134.288 23.4864C134.95 23.4864 135.625 23.5156 135.897 23.5156C136.042 23.5156 136.516 23.4864 137.134 23.4864C137.306 23.4864 137.421 23.501 137.421 23.6016C137.421 23.6746 137.35 23.7315 137.205 23.7315C137.075 23.7258 136.944 23.7406 136.818 23.7753C136.472 23.8759 136.371 24.0901 136.358 24.7814L136.214 32.4829C136.214 32.7571 136.113 32.8723 136.013 32.8723C135.913 32.8654 135.817 32.8389 135.728 32.7944C135.639 32.7498 135.56 32.688 135.495 32.6127C134.705 31.8792 133.124 30.3717 131.802 29.0913C130.422 27.7704 129.085 26.2889 128.842 26.0747H128.798L128.934 31.0613Z" fill="#142F4E"/>
<path d="M147.805 31.9084C147.805 32.233 147.805 32.2541 147.643 32.3401C146.796 32.7571 145.545 32.8853 144.56 32.8853C141.455 32.8853 138.718 31.4768 138.718 28.0999C138.718 26.1526 139.766 24.7814 140.931 24.1047C142.138 23.4005 143.273 23.3145 144.339 23.3145C145.09 23.3233 145.839 23.3906 146.58 23.5157C146.913 23.576 147.249 23.6193 147.586 23.6455C147.73 23.6601 147.758 23.7023 147.758 23.7883C147.689 24.4567 147.66 25.1286 147.672 25.8005C147.672 25.9871 147.601 26.0747 147.5 26.0747C147.399 26.0747 147.385 26.0163 147.37 25.9125C147.347 25.5377 147.195 25.1824 146.94 24.9064C146.565 24.5185 145.618 23.9733 144.195 23.9733C143.505 23.9733 142.629 23.9863 141.751 24.6905C141.046 25.2666 140.587 26.1721 140.587 27.6666C140.587 30.2955 142.283 32.2103 144.985 32.2103C145.288 32.2332 145.592 32.1889 145.876 32.0805C145.959 32.0463 146.028 31.9855 146.072 31.9076C146.116 31.8297 146.134 31.7392 146.121 31.6504V30.5291C146.121 29.9255 146.121 29.4662 146.106 29.0914C146.091 28.676 145.962 28.5461 145.559 28.4309C145.399 28.3985 145.236 28.3839 145.072 28.3871C144.957 28.3871 144.871 28.3303 144.871 28.2589C144.871 28.1583 144.972 28.1437 145.144 28.1437C145.806 28.1437 146.711 28.1729 147.091 28.1729C147.494 28.1729 148.154 28.1437 148.571 28.1437C148.745 28.1437 148.831 28.1583 148.831 28.2589C148.826 28.2973 148.806 28.3322 148.776 28.3562C148.745 28.3801 148.707 28.3913 148.668 28.3871C148.552 28.3898 148.437 28.4045 148.324 28.4309C147.979 28.4877 147.851 28.6614 147.838 29.0914C147.823 29.4662 147.823 29.9547 147.823 30.5518L147.805 31.9084Z" fill="#142F4E"/>
<path d="M44.4111 0.734131H43.6581V38.4286H44.4111V0.734131Z" fill="#142F4E"/>
<path d="M20.4033 22.8179C20.2589 22.8179 20.2215 22.925 20.2037 23.0889C20.145 23.4871 19.9821 23.8628 19.7315 24.1777C19.3891 24.5493 18.899 24.65 18.271 24.6775L18.6118 25.7015H19.1376C20.082 25.7015 20.1712 25.6122 20.2735 25.2147C20.4155 24.5272 20.5072 23.8303 20.5477 23.1295C20.5477 22.9088 20.5299 22.8179 20.4033 22.8179ZM16.3903 11.9229C15.6828 11.9229 14.357 11.978 13.9221 11.978C13.4353 11.978 12.288 11.9229 11.4344 11.9229C11.1618 11.9229 11.0352 11.9602 11.0352 12.0851C11.0352 12.2101 11.144 12.2474 11.3436 12.2474C11.5446 12.2428 11.7455 12.2613 11.9424 12.3026C12.5428 12.4291 12.6872 12.7196 12.7229 13.3379C12.7602 13.9172 12.7602 14.4251 12.7602 17.1854V20.3805C12.7602 22.052 12.7602 23.4865 12.6693 24.2475C12.5963 24.7749 12.5071 25.1741 12.142 25.2471C11.9288 25.2946 11.7112 25.3185 11.4929 25.3185C11.2738 25.3185 11.2008 25.3737 11.2008 25.4646C11.2008 25.5911 11.329 25.6463 11.5643 25.6463C11.9278 25.6463 12.4 25.6106 12.8186 25.6106C13.2373 25.6106 13.6527 25.5911 13.8523 25.5911C14.5971 25.5911 15.2511 25.6106 16.0673 25.6463H16.2734L16.0268 24.5656C15.8007 24.5263 15.589 24.4277 15.4134 24.28C15.032 23.9554 15.032 22.7011 15.032 20.3757V17.1886C15.032 14.43 15.032 13.9204 15.0694 13.3411C15.1051 12.705 15.2511 12.3951 15.7396 12.3058C15.9722 12.2721 16.2071 12.2559 16.4422 12.2571C16.6596 12.2571 16.7667 12.2214 16.7667 12.0949C16.7667 11.9683 16.645 11.9229 16.3903 11.9229Z" fill="#009CE3"/>
<path d="M19.0569 20.2347C19.6979 19.6521 20.5174 19.3812 21.6241 19.3812C22.812 19.3812 23.8959 19.7203 24.3925 20.2428C24.6384 20.5029 24.8119 20.823 24.8956 21.171C24.8956 21.0834 24.8956 20.986 24.8956 20.887C24.8956 20.6225 24.8956 20.3467 24.915 20.1341C24.9296 19.8517 24.9523 19.6814 24.9653 19.5694C24.9653 19.5207 24.9767 19.4834 24.9783 19.4542H24.9459C24.7333 19.4331 24.5175 19.3909 24.2968 19.3455C24.0761 19.3 23.8765 19.2627 23.6477 19.2319C23.0307 19.1435 22.408 19.1006 21.7848 19.1037C20.0533 19.1037 18.786 19.5272 17.7945 20.4359C16.4346 21.6806 16.334 23.3779 16.334 23.8696C16.3332 24.1672 16.3544 24.4644 16.3973 24.7589C16.3973 24.7589 16.3973 24.7703 16.3973 24.7767C16.4476 25.1287 16.5357 25.4742 16.6602 25.8072C16.9153 26.4885 17.3364 27.0953 17.8853 27.5727C18.9661 28.5107 20.3454 28.9472 22.231 28.9472C23.1771 28.9472 24.0696 28.8352 24.5028 28.6616C24.6651 28.5918 24.6846 28.5723 24.7365 28.3987C24.8363 27.9901 24.9126 27.5762 24.9653 27.1589C24.8741 27.3773 24.7499 27.5803 24.597 27.7609C24.0241 28.41 23.2404 28.548 22.0834 28.548C20.7852 28.548 19.0115 27.6766 18.2212 25.8396C18.0808 25.515 17.9763 25.176 17.9097 24.8287C17.9104 24.8255 17.9104 24.8221 17.9097 24.8189C17.8424 24.4632 17.8092 24.1019 17.8107 23.7398C17.8042 22.1317 18.2018 21.0201 19.0569 20.2347Z" fill="#009CE3"/>
<path d="M5.5293 25.0378C5.62144 24.7951 5.63954 24.5305 5.58134 24.2775C5.52313 24.0245 5.39123 23.7944 5.20229 23.6164C5.01335 23.4384 4.77586 23.3203 4.51986 23.2772C4.26385 23.2342 4.00082 23.2679 3.76401 23.3743C3.5272 23.4807 3.32725 23.6549 3.18944 23.8749C3.05162 24.0949 2.98213 24.3508 2.98975 24.6103C2.99736 24.8698 3.08175 25.1212 3.23223 25.3328C3.38271 25.5443 3.59253 25.7065 3.83516 25.7988C3.99635 25.8604 4.1681 25.8895 4.34057 25.8846C4.51303 25.8796 4.68283 25.8407 4.84021 25.7699C4.9976 25.6992 5.13948 25.5982 5.25773 25.4725C5.37598 25.3469 5.46826 25.1991 5.5293 25.0378ZM3.74429 24.3595C3.78601 24.25 3.85925 24.1553 3.95476 24.0875C4.05027 24.0196 4.16376 23.9816 4.28086 23.9783C4.39797 23.9749 4.51343 24.0064 4.61266 24.0687C4.71189 24.131 4.79041 24.2213 4.83831 24.3282C4.88621 24.4351 4.90132 24.5538 4.88174 24.6693C4.86216 24.7848 4.80877 24.892 4.72831 24.9771C4.64786 25.0623 4.54395 25.1217 4.42974 25.1478C4.31554 25.1739 4.19615 25.1655 4.08669 25.1238C3.94111 25.0665 3.824 24.9541 3.7608 24.811C3.69761 24.6679 3.69343 24.5056 3.74917 24.3595H3.74429Z" fill="#009CE3"/>
<path d="M3.88698 14.8843C5.30405 11.179 8.13288 8.18706 11.753 6.56471C15.3731 4.94236 19.4889 4.82208 23.1975 6.23025C23.919 6.50886 24.6183 6.84194 25.2892 7.22661L24.7781 8.12561C24.1534 7.76922 23.5024 7.46108 22.8308 7.20389C20.4452 6.29561 17.856 6.06029 15.3458 6.52365C12.8356 6.987 10.5009 8.13121 8.59687 9.83131C6.6928 11.5314 5.29249 13.722 4.54888 16.1639C3.80527 18.6058 3.74695 21.2051 4.38029 23.6779L3.37907 23.9343C2.60246 20.9383 2.78002 17.7746 3.88698 14.8843Z" fill="#009CE3"/>
<path d="M7.47754 30.9785L7.83616 30.6086L8.01953 30.1217L8.12014 30.1591L8.19641 30.2321C10.6086 32.5578 13.7785 33.936 17.1246 34.1138C20.4707 34.2916 23.7687 33.2571 26.4138 31.2C29.0589 29.143 30.8737 26.2013 31.5255 22.9145C32.1772 19.6277 31.6222 16.2161 29.9621 13.3053L30.8595 12.7942C32.6444 15.921 33.2419 19.5867 32.5423 23.1185C31.8427 26.6503 29.893 29.8114 27.0509 32.0217C24.2088 34.232 20.6649 35.3433 17.0696 35.1517C13.4743 34.9601 10.0686 33.4784 7.47754 30.9785Z" fill="#009CE3"/>
<path d="M7.09405 31.0094C7.75814 31.0094 8.29649 30.471 8.29649 29.8069C8.29649 29.1428 7.75814 28.6045 7.09405 28.6045C6.42995 28.6045 5.8916 29.1428 5.8916 29.8069C5.8916 30.471 6.42995 31.0094 7.09405 31.0094Z" fill="#009CE3"/>
<path d="M25.6793 9.19994C26.2869 9.19994 26.7795 8.70736 26.7795 8.09973C26.7795 7.49209 26.2869 6.99951 25.6793 6.99951C25.0717 6.99951 24.5791 7.49209 24.5791 8.09973C24.5791 8.70736 25.0717 9.19994 25.6793 9.19994Z" fill="#009CE3"/>
<path d="M31.1197 12.9842C31.2123 12.7413 31.2308 12.4765 31.1729 12.2231C31.1151 11.9697 30.9833 11.7391 30.7944 11.5606C30.6055 11.382 30.3679 11.2635 30.1117 11.22C29.8554 11.1765 29.592 11.2099 29.3547 11.316C29.1175 11.4222 28.917 11.5963 28.7787 11.8164C28.6404 12.0364 28.5704 12.2926 28.5776 12.5524C28.5849 12.8122 28.669 13.0641 28.8193 13.2761C28.9697 13.4881 29.1795 13.6508 29.4223 13.7436C29.5836 13.8055 29.7555 13.8349 29.9282 13.8302C30.1009 13.8255 30.271 13.7868 30.4286 13.7162C30.5863 13.6457 30.7285 13.5447 30.8471 13.4191C30.9657 13.2935 31.0583 13.1457 31.1197 12.9842ZM29.3347 12.3059C29.376 12.1962 29.449 12.1013 29.5443 12.0331C29.6396 11.9649 29.753 11.9265 29.8702 11.9228C29.9873 11.9191 30.1029 11.9503 30.2024 12.0123C30.3018 12.0743 30.3806 12.1645 30.4288 12.2713C30.477 12.3781 30.4924 12.4969 30.4731 12.6125C30.4538 12.7281 30.4006 12.8353 30.3203 12.9207C30.24 13.0061 30.1361 13.0657 30.0219 13.092C29.9077 13.1183 29.7883 13.1102 29.6787 13.0686C29.5329 13.0119 29.4154 12.9001 29.3516 12.7573C29.2878 12.6145 29.2829 12.4523 29.3379 12.3059H29.3347Z" fill="#009CE3"/>
<path d="M27.7406 35.1717C27.9053 35.2257 28.0823 35.2301 28.2496 35.1844C28.4169 35.1388 28.5671 35.0451 28.6816 34.9149C28.7961 34.7847 28.8699 34.6237 28.8939 34.452C28.9178 34.2803 28.8908 34.1053 28.8163 33.9488C28.7417 33.7922 28.6229 33.661 28.4745 33.5713C28.3261 33.4817 28.1546 33.4375 27.9814 33.4444C27.8081 33.4512 27.6407 33.5087 27.4998 33.6098C27.3589 33.7109 27.2508 33.8511 27.1888 34.0131C27.163 34.0775 27.1461 34.1452 27.1385 34.2143C23.6579 36.4454 19.4801 37.3235 15.3958 36.6823C11.3114 36.0411 7.60371 33.9252 4.97412 30.7348C2.34452 27.5445 0.975429 23.501 1.12586 19.3694C1.2763 15.2377 2.93582 11.3045 5.79046 8.31385C8.64511 5.32319 12.4969 3.48251 16.6171 3.14006C20.7372 2.79761 24.84 3.97715 28.1492 6.45551C31.4584 8.93387 33.7445 12.5392 34.575 16.5893C35.4054 20.6394 34.7226 24.8534 32.6558 28.4341C32.359 28.4067 32.0617 28.481 31.8126 28.6448C31.5636 28.8087 31.3776 29.0523 31.2853 29.3357C31.1929 29.6191 31.1996 29.9255 31.3043 30.2046C31.4091 30.4837 31.6055 30.719 31.8615 30.8717C32.1175 31.0244 32.4178 31.0856 32.7132 31.0452C33.0085 31.0048 33.2813 30.8652 33.4869 30.6494C33.6925 30.4335 33.8186 30.1541 33.8445 29.8572C33.8704 29.5602 33.7945 29.2632 33.6295 29.015C34.1105 28.1797 34.5251 27.3077 34.8692 26.4073C36.3958 22.4032 36.4461 17.9862 35.0111 13.9484C33.576 9.91052 30.7495 6.51596 27.0383 4.37336C23.3272 2.23076 18.9741 1.48028 14.7597 2.25648C10.5453 3.03268 6.7453 5.2848 4.041 8.609C1.33671 11.9332 -0.0949528 16.112 0.00273517 20.3962C0.100423 24.6803 1.72107 28.7896 4.57408 31.9871C7.42708 35.1845 11.3258 37.2611 15.5712 37.8444C19.8166 38.4277 24.1309 37.4796 27.7406 35.1701V35.1717ZM33.1297 29.9676C33.0861 30.0857 33.0084 30.1882 32.9064 30.262C32.8044 30.3359 32.6828 30.3777 32.557 30.3822C32.4311 30.3867 32.3068 30.3536 32.1998 30.2872C32.0928 30.2209 32.008 30.1242 31.9562 30.0094C31.9043 29.8947 31.8878 29.7671 31.9086 29.643C31.9295 29.5188 31.9868 29.4037 32.0733 29.3122C32.1598 29.2207 32.2716 29.157 32.3944 29.1292C32.5172 29.1015 32.6455 29.1109 32.7629 29.1562C32.9178 29.2169 33.0428 29.3357 33.1113 29.4873C33.1798 29.6389 33.1864 29.8112 33.1297 29.9676Z" fill="#009CE3"/>
</g>
<defs>
<clipPath id="clip0_23_336">
<rect width="164" height="37.6945" fill="white" transform="translate(0 0.734131)"/>
</clipPath>
</defs>
</svg>
